<?xml version="1.0" encoding="utf-8"?>
<!-- Generator: Adobe Illustrator 23.0.3, SVG Export Plug-In . SVG Version: 6.00 Build 0)  -->
<svg version="1.1" id="Layer_1" xmlns="http://www.w3.org/2000/svg" xmlns:xlink="http://www.w3.org/1999/xlink" x="0px" y="0px"
	 viewBox="0 0 1366 768" style="enable-background:new 0 0 1366 768;" xml:space="preserve">
<style type="text/css">
	.st0{fill:#FFFFFF;}
</style>
<g>
	<path d="M610.5,676.5c-83.07,0-161.17-32.35-219.91-91.09S299.5,448.57,299.5,365.5s32.35-161.17,91.09-219.91
		S527.43,54.5,610.5,54.5s161.17,32.35,219.91,91.09S921.5,282.43,921.5,365.5s-32.35,161.17-91.09,219.91S693.57,676.5,610.5,676.5
		z"/>
	<path d="M610.5,55c41.92,0,82.58,8.21,120.86,24.4c36.97,15.64,70.18,38.03,98.7,66.54c28.52,28.52,50.9,61.72,66.54,98.7
		c16.19,38.28,24.4,78.94,24.4,120.86s-8.21,82.58-24.4,120.86c-15.64,36.97-38.03,70.18-66.54,98.7s-61.72,50.9-98.7,66.54
		C693.08,667.79,652.42,676,610.5,676s-82.58-8.21-120.86-24.4c-36.97-15.64-70.18-38.03-98.7-66.54
		c-28.52-28.52-50.9-61.72-66.54-98.7C308.21,448.08,300,407.42,300,365.5s8.21-82.58,24.4-120.86
		c15.64-36.97,38.03-70.18,66.54-98.7s61.72-50.9,98.7-66.54C527.92,63.21,568.58,55,610.5,55 M610.5,54
		C438.46,54,299,193.46,299,365.5S438.46,677,610.5,677S922,537.54,922,365.5S782.54,54,610.5,54L610.5,54z"/>
</g>
<ellipse class="st0" cx="605.5" cy="542.5" rx="251.5" ry="220.5"/>
<g>
	<circle class="st0" cx="618" cy="272" r="120"/>
	<path d="M618,164c28.85,0,55.97,11.23,76.37,31.63C714.77,216.03,726,243.15,726,272s-11.23,55.97-31.63,76.37
		C673.97,368.77,646.85,380,618,380s-55.97-11.23-76.37-31.63C521.23,327.97,510,300.85,510,272s11.23-55.97,31.63-76.37
		C562.03,175.23,589.15,164,618,164 M618,140c-72.9,0-132,59.1-132,132s59.1,132,132,132s132-59.1,132-132S690.9,140,618,140
		L618,140z"/>
</g>
</svg>
